<svg width="641" height="586" viewBox="0 0 641 586" fill="none" xmlns="http://www.w3.org/2000/svg">
<path d="M395.367 100.407C294.684 72.1643 259.946 28.3298 255.162 9.94284C243.754 9.94284 211.886 8.17769 175.675 1.11709C130.412 -7.70865 140.348 38.6265 87.3572 39.7297C34.3663 40.833 37.6782 100.407 10.0787 161.084C-17.5207 221.761 16.7026 240.515 50.9259 271.406C85.1492 302.296 105.021 347.528 119.372 360.766C133.724 374.005 144.764 473.295 175.675 505.288C206.587 537.281 241.914 582.513 294.905 585.823C347.896 589.132 521.22 545.004 554.339 543.901C587.459 542.797 605.122 392.76 628.306 369.592C651.489 346.424 640.45 292.367 615.058 218.451C589.667 144.535 521.22 135.71 395.367 100.407Z" fill="#1F25A5"/>
</svg>
